<svg t="1584926205635" class="icon" viewBox="0 0 1024 1024" version="1.1" xmlns="http://www.w3.org/2000/svg" p-id="4549" width="200" height="200"><path d="M512 981.333333C251.733333 981.333333 42.666667 772.266667 42.666667 512S251.733333 42.666667 512 42.666667s469.333333 209.066667 469.333333 469.333333-209.066667 469.333333-469.333333 469.333333z m0-853.333333C300.8 128 128 300.8 128 512s172.8 384 384 384 384-172.8 384-384S723.2 128 512 128z" fill="#4E4E4E" p-id="4550"></path><path d="M512 554.666667c-23.466667 0-42.666667-19.2-42.666667-42.666667V256c0-23.466667 19.2-42.666667 42.666667-42.666667s42.666667 19.2 42.666667 42.666667v256c0 23.466667-19.2 42.666667-42.666667 42.666667z" fill="#FF9813" p-id="4551"></path><path d="M693.333333 736c-10.666667 0-21.333333-4.266667-29.866666-12.8l-181.333334-181.333333c-14.933333-17.066667-12.8-44.8 4.266667-59.733334 14.933333-12.8 40.533333-12.8 55.466667 0l181.333333 181.333334c17.066667 17.066667 17.066667 42.666667 0 59.733333-8.533333 8.533333-19.2 12.8-29.866667 12.8z" fill="#FF9813" p-id="4552"></path></svg>