<svg t="1584769143613" class="icon" viewBox="0 0 1024 1024" version="1.1" xmlns="http://www.w3.org/2000/svg" p-id="7915" width="200" height="200"><path d="M893.714962 492.812024c8.849534 9.828836 8.050334 24.972715-1.77441 33.822249-9.828836 8.842371-24.966575 8.050334-33.817132-1.782596-66.417556-73.680969-129.649566-127.527233-191.500116-160.644426 38.042355 37.712851 61.608027 89.997554 61.608027 147.798889 0.00307 114.928313-93.166727 208.099133-208.092993 208.099132s-208.097086-93.17082-208.097086-208.099132c0-6.637151 0.311084-13.190391 0.914834-19.658696 0.345877-3.675709 3.03819-6.55324 6.683199-7.14471 3.649103-0.59147 7.112987 1.298573 8.595755 4.68264 14.872703 33.907183 48.736907 57.599744 88.139233 57.599744 53.138138 0 96.204917-43.080082 96.204917-96.211056 0-53.134045-43.066779-96.204917-96.204917-96.204917a96.20287 96.20287 0 0 0-30.61419 4.974281c-65.084191 32.748803-132.771667 88.683631-205.085502 168.758205-8.835208 9.771531-23.938154 10.524683-33.713778 1.682312-9.779718-8.849534-10.540033-23.94634-1.685382-33.722988 134.839765-149.327705 257.697662-220.696007 380.118607-219.543767 122.570348 1.15224 241.407683 74.829116 368.32298 215.598929v-0.004093z" fill="#1296db" p-id="7916"></path><path d="M935.433026 608.474046c-141.937403 148.758748-276.895871 225.474837-413.351433 226.841971-134.17871 1.337459-267.135596-70.177176-406.791031-217.66191-19.290307 12.922285-39.172083 15.357749-56.702306 10.401887-23.001831-6.491842-39.587544-25.151793-46.466195-47.652205-7.740273-25.298125-3.726874-57.318336 19.7467-86.665675 20.439477-25.554975 43.688948-51.539737 65.971396-75.258904 148.072111-157.635912 291.427813-234.27423 436.203861-229.612056 157.486509 5.070472 313.512763 106.476844 475.985834 304.590575 8.377791 10.1829 6.90628 25.249007-3.27969 33.622704-10.186993 8.373698-25.24389 6.914466-33.624751-3.272526C819.799656 336.838981 675.327529 241.228605 532.533621 236.630899c-130.345413-4.198617-261.939257 67.56161-400.245977 215.000296-21.073926 22.45948-43.762625 47.664484-63.136843 71.892233-12.427006 15.525571-14.926938 31.235336-11.323883 43.019707 2.008746 6.584962 6.745621 13.467706 13.686693 15.434496 5.896279 1.658776 13.68567-0.438997 22.321333-8.020658 8.373698-7.35244 17.230395-9.587337 25.74224-8.811672 10.255554 0.921997 17.976384 6.276948 23.239237 11.922517C275.596275 719.636599 399.356725 788.767958 521.70911 787.547156c114.000176-1.144054 228.574425-63.985162 351.616517-184.129256 18.050062-17.622321 88.220074-22.393988 62.107399 5.056146z" fill="#1296db" p-id="7917"></path></svg>