<svg t="1584597411935" class="icon" viewBox="0 0 1024 1024" version="1.1" xmlns="http://www.w3.org/2000/svg" p-id="2448" width="200" height="200"><path d="M735.00672 308.9408c16.03072-99.84 5.71392-173.28128-30.7968-218.73664C686.16192 67.7376 652.01664 40.96 591.82592 40.96c-50.48832 0-89.83552 14.5664-116.94592 43.2896a134.07744 134.07744 0 0 0-35.02592 92.87168v72.32c0 97.34144-146.98496 111.872-234.59328 111.872-106.05056 0-137.07776 76.86656-138.67008 117.50912L66.56 858.624c0 48.46592 19.2256 76.92288 35.328 92.25728C133.04832 980.48 173.27104 983.04 186.1632 983.04c1.2544 0 2.24768 0 2.95936-0.0512 15.22688-0.27136 437.19168-7.7312 565.30432-7.7312 129.3824 0 169.984-126.72512 173.45536-194.45248 1.024-11.44832 14.53568-158.90944 19.85536-218.47552l0.70144-7.7824c5.632-61.98272 11.98592-132.23936-34.54976-197.66784-41.36448-58.16832-121.53344-53.504-178.88256-47.93856z m145.3568 239.43168l-0.7168 7.87456c-5.52448 61.952-19.90656 219.02336-19.90656 219.02336l-0.09728 1.49504c-0.256 5.31456-7.3216 130.10432-105.22112 130.10432-130.42176 0-562.56512 7.68-566.912 7.75168h-0.76288c-0.21504 0.06656-23.552 0.512-38.0416-13.60896-9.15456-8.90368-13.79328-23.168-13.79328-42.40896V481.32096c1.05984-12.96384 9.38496-51.61472 70.34368-51.61472 263.59296 0 302.9504-112.94208 302.9504-180.25984V176.4096l-0.0512-1.96096a66.38592 66.38592 0 0 1 16.41984-43.24864c13.69088-14.49984 36.31616-21.85216 67.2512-21.85216 26.9568 0 46.29504 7.75168 59.10528 23.69536 27.38176 34.08896 30.47936 107.29472 8.704 206.14656l-9.14432 41.5488h42.496c11.22816 0 24.192-1.30048 39.1936-2.80064 41.91744-4.19328 105.25184-10.5472 125.952 18.59072 31.92832 44.81536 27.42784 94.40768 22.23104 151.82336z" fill="#1296db" p-id="2449"></path><path d="M233.86112 502.9632A34.18624 34.18624 0 0 0 199.68 537.15456v271.11936a34.176 34.176 0 1 0 68.35712 0v-271.11936a34.18624 34.18624 0 0 0-34.176-34.19136z" fill="#1296db" p-id="2450"></path></svg>