<svg t="1584602382867" class="icon" viewBox="0 0 1024 1024" version="1.1" xmlns="http://www.w3.org/2000/svg" p-id="6959" width="200" height="200"><path d="M310.6 566.3c-6.3 6.3-13.8 9.5-22.5 9.5H144c-8.7 0-16.2-3.2-22.5-9.5-6.3-6.3-9.5-13.7-9.5-22.5V223.4c0-8.7 3.2-16.2 9.5-22.5 6.3-6.3 13.7-9.5 22.5-9.5h144.1c8.7 0 16.2 3.2 22.5 9.5 6.3 6.3 9.5 13.8 9.5 22.5v320.3c0 8.7-3.1 16.2-9.5 22.6z m-80.1-301.6c-6.3-6.2-13.8-9.3-22.5-9.3-9.1 0-16.6 3.1-22.7 9.3-6.2 6.2-9.3 13.7-9.3 22.7 0 8.7 3.1 16.2 9.3 22.5 6.2 6.3 13.7 9.5 22.7 9.5 8.7 0 16.2-3.2 22.5-9.5 6.3-6.3 9.5-13.7 9.5-22.5 0-9-3.2-16.6-9.5-22.7z m662.3 166.4c1.1-25.4-6.2-48.2-21.5-68.5 5.7-18.6 5.7-38.2 0-58.6-5.1-19-14-34.8-27.1-47 3.1-37.4-5.2-67.5-24.5-90.6-21.4-25.4-54.2-38.3-98.6-39h-64.7c-22 0-46 2.6-72.1 7.8-26 5.2-46.3 10-60.9 14.5-14.5 4.5-34.7 11.1-60.4 19.8-41 14.3-67.3 21.7-79.1 22-8.7 0.3-16.2 3.6-22.5 9.8-6.3 6.2-9.5 13.5-9.5 22.3v320.8c0 8.3 3.1 15.5 9.1 21.8 6 6.2 13.1 9.6 21.5 10.3 8 0.6 20.7 10.6 38 29.6s34.2 39.2 50.5 60.6c22.7 29.1 39.5 49 50.5 60.1 6 6 11.2 14 15.4 24 4.3 10 7.3 18.1 8.8 24.3 1.5 6.2 3.8 16.3 6.8 30.3 2.3 13 4.4 23.1 6.2 30.5 1.8 7.4 5.1 16 9.8 26 4.7 10 10.4 18.3 17 25.1 6.3 6.3 13.7 9.5 22.5 9.5 15.3 0 29.2-1.8 41.2-5.3 12.3-3.5 22.2-7.9 30-13 7.8-5.2 14.5-11.9 20-20.3 5.5-8.3 9.5-15.9 12-22.5 2.5-6.7 4.5-15 6-25.1 1.5-10 2.3-17.4 2.5-22.5 0.2-5.1 0.2-11.5 0.2-19.5 0-12.6-1.7-25.5-5.1-38.3-3.4-12.8-6.6-22.6-9.5-29.3-3.1-6.7-7.5-16.2-13.4-28.5-1.1-2-2.6-5.1-5.1-9.1-2.3-4-4.2-7.7-5.5-11.1-1.4-3.4-2.6-7.4-4-12h138.6c26 0 48.4-9.5 67.3-28.5 18.8-19 28.4-41.5 28.8-67.5 0-29.4-9.2-54.2-27.6-74.5 5.9-15.1 8.4-27.7 8.4-38.4z" p-id="6960" fill="#1296db"></path></svg>